<svg id="icon" height="512" viewBox="0 0 128 128" width="512" xmlns="http://www.w3.org/2000/svg"><path d="m78.9 71.683-7.219 7.217 20.119 23.531a7.533 7.533 0 0 0 10.993.362 7.533 7.533 0 0 0 -.362-10.993z" fill="#fed19a"/><path d="m73.949 31.744a29.837 29.837 0 0 1 5.288 35.042 9.207 9.207 0 0 1 -12.449 12.449 29.843 29.843 0 1 1 7.161-47.491z" fill="#575b6d"/><path d="m71.316 34.39a26.065 26.065 0 0 0 -3.3-2.8 25.4 25.4 0 0 0 -6.757-3.453 20.646 20.646 0 0 0 -2.8-.785c-.5-.116-1-.216-1.518-.3a26.113 26.113 0 0 0 -23.079 43.708c.166.184.333.367.517.551s.367.367.567.55a26.1 26.1 0 0 0 2.236 1.885 25.687 25.687 0 0 0 6.673 3.621 26.113 26.113 0 0 0 27.461-42.977z" fill="#69b0ee"/><g fill="#eeefee" opacity=".5"><path d="m58.453 27.349-23.507 44.512c-.2-.183-.384-.367-.567-.55s-.351-.367-.517-.551l23.073-43.711c.517.084 1.018.184 1.518.3z"/><path d="m68.013 31.587-24.158 45.78a25.687 25.687 0 0 1 -6.673-3.621l24.074-45.612a25.4 25.4 0 0 1 6.757 3.453z"/></g></svg>